# xmcd CD database file
#
# Track frame offsets:
#	150
#	22282
#	46557
#	67180
#	90762
#	110900
#	130180
#	156277
#	178537
#	200522
#	218522
#
# Disc length: 3219 seconds
#
# Revision: 0
# Processed by: cddbd v1.5.1PL0 Copyright (c) Steve Scherf et al.
# Submitted via: CDex 1.51
#
DISCID=950c910b
DTITLE=LOST and FOUND performed by Miho Morikawa - LOST and FOUND
DYEAR=2000
DGENRE=JPop
TTITLE0=vacant
TTITLE1=kiss
TTITLE2=wish
TTITLE3=leave
TTITLE4=illusion
TTITLE5=answer
TTITLE6=door
TTITLE7=will
TTITLE8=pause
TTITLE9=rise
TTITLE10=melody
EXTD=YEAR: 2000
EXTT0=
EXTT1=
EXTT2=
EXTT3=
EXTT4=
EXTT5=
EXTT6=
EXTT7=
EXTT8=
EXTT9=
EXTT10=
PLAYORDER=
